<svg width="642" height="664" viewBox="0 0 642 664" fill="none" xmlns="http://www.w3.org/2000/svg">
<g clip-path="url(#clip0_103_312)">
<path opacity="0.96" d="M400.26 89.8148C406.001 89.7515 411.742 89.9413 417.483 90.4159C480.444 95.6685 552.99 131.075 583.483 197.175C610.148 254.952 619.922 330.165 606.557 395.315C594 456.541 556.928 506.583 505.686 526.185C448.054 548.223 385.013 523.606 328.204 553.349C245.505 596.651 142.72 564.993 86.2264 486.063C36.1386 416.088 25.305 302.114 42.5123 213.391C51.2108 168.555 73.0837 125.143 107.277 102.092C134.495 83.7396 167.139 79.6894 197.932 83.8503C222.683 87.2043 245.378 96.6652 269.133 104.37C288.175 110.54 303.911 106.917 323.539 101.886C348.812 95.4153 374.496 90.0837 400.26 89.7989V89.8148Z" fill="#ECECEC"/>
<path opacity="0.53" d="M355.565 270.584C355.565 270.584 373.863 228.01 412.912 220.321C451.961 212.616 358.333 283.335 358.333 283.335L355.565 270.584Z" fill="#1C174F"/>
<path opacity="0.53" d="M357.368 278.953C357.368 278.953 394.534 235.113 406.934 229.402C419.333 223.675 373.579 242.422 356.877 276.706L357.368 278.953Z" fill="#1C174F"/>
<path opacity="0.53" d="M347.42 273.463C347.42 273.463 346.266 227.14 378.529 203.82C410.793 180.5 355.249 283.889 355.249 283.889L347.404 273.463H347.42Z" fill="#1C174F"/>
<path opacity="0.53" d="M352.56 280.298C352.56 280.298 368.028 224.94 376.9 214.562C385.773 204.184 352.038 240.334 351.184 278.462L352.56 280.298Z" fill="#1C174F"/>
<g style="mix-blend-mode:multiply" opacity="0.59">
<path d="M355.091 234.702C346.977 254.478 347.42 273.447 347.42 273.447L352.007 279.554C352.56 280.282 352.56 280.282 352.56 280.282L355.265 283.873C355.265 283.873 356.103 282.307 357.526 279.601L358.333 283.319C358.333 283.319 369.831 274.634 383.1 263.686C375.287 248.814 363.014 239.496 355.107 234.686L355.091 234.702Z" fill="#1C174F"/>
</g>
<path d="M277.895 127.373C277.895 127.373 153.885 136.581 160.006 99.9876C166.127 63.3941 226.226 91.6975 226.226 91.6975C226.226 91.6975 178.652 66.6531 172.121 31.2303C165.589 -4.19251 260.466 77.7752 260.466 77.7752C260.466 77.7752 227.823 50.6108 228.171 13.0364C228.535 -25.8512 289.345 25.2342 277.895 127.373Z" fill="#CCCCCC"/>
<path opacity="0.53" d="M269.228 108.816C269.228 108.816 166.332 10.9323 192.887 42.2733C219.425 73.5985 269.244 108.816 269.244 108.816H269.228Z" fill="#1C174F"/>
<path opacity="0.53" d="M177.324 99.9877L264.926 110.287C264.926 110.287 189.17 111.837 177.324 99.9877Z" fill="#1C174F"/>
<path opacity="0.53" d="M241.709 19.871L273.308 84.6414C273.308 84.6414 257.477 29.1736 241.709 19.871Z" fill="#1C174F"/>
<g style="mix-blend-mode:multiply" opacity="0.59">
<path d="M277.895 127.374C281.184 98.0101 278.496 72.8708 273.008 52.8574H239.89C248.114 66.5899 257.983 75.5761 260.071 77.4113C257.698 75.3863 244.888 64.4541 229.721 52.8574V128.117C255.215 129.051 277.911 127.374 277.911 127.374H277.895Z" fill="#1C174F"/>
</g>
<path d="M180.993 518.132C170.27 514.604 159.927 511.804 150.643 510.079C38.4476 486.459 34.7309 426.624 0 380.839C59.0552 384.541 103.924 460.354 157.301 473.391C210.679 486.427 264.452 516.518 264.452 516.518C264.452 516.518 270.809 527.64 276.076 539.158C278.085 540.17 280.093 541.199 282.102 542.306C281.042 543.667 280.03 544.948 279.097 546.151C284.458 559.456 286.166 570.277 271.917 560.848C270.983 560.231 270.034 559.614 269.038 558.981C265.97 562.894 264.436 564.856 264.436 564.867C264.436 564.867 198.406 589.073 154.091 565.278C109.776 541.483 54.1208 548.018 54.1208 548.018C54.1208 548.018 111.294 518.575 181.009 518.132H180.993Z" fill="#CCCCCC"/>
<path opacity="0.53" d="M244.998 528.352C244.998 528.352 191.036 500.302 137.579 490.778C84.1228 481.254 36.8818 412.291 36.8818 412.291C36.8818 412.291 94.1341 478.137 138.022 484.228C181.91 490.335 243.053 518.433 243.053 518.433L245.014 528.337L244.998 528.352Z" fill="#1C174F"/>
<path opacity="0.49" d="M54.1206 548.018C54.1206 548.018 186.512 517.626 277.246 561.671" stroke="#36363D" stroke-width="1.05" stroke-miterlimit="10"/>
<g style="mix-blend-mode:multiply">
<path d="M269.038 558.981C270.019 559.614 270.983 560.231 271.916 560.848C286.166 570.278 284.458 559.456 279.097 546.151C280.046 544.948 281.042 543.667 282.102 542.306C280.093 541.215 278.085 540.17 276.076 539.158C270.809 527.64 264.452 516.518 264.452 516.518C264.452 516.518 240.364 503.055 208.449 490.224C208.496 512.848 210.805 550.992 224.517 574.169C247.244 571.163 264.436 564.851 264.436 564.851C264.436 564.851 265.97 562.889 269.038 558.966V558.981Z" fill="#1C174F"/>
</g>
<path opacity="0.53" d="M410.002 536.278C410.002 536.278 574.531 418.84 608.898 500.745C619.969 531.864 410.603 550.058 410.603 550.058L410.002 536.278Z" fill="#1C174F"/>
<path d="M581.949 493.388C581.949 493.388 465.641 510.522 426.767 528.447" stroke="white" stroke-width="1.03" stroke-miterlimit="10"/>
<path d="M497.352 508.544C497.352 508.544 508.66 502.438 519.557 483.548" stroke="white" stroke-width="1.03" stroke-miterlimit="10"/>
<g style="mix-blend-mode:multiply">
<path d="M438.486 547.242L560.961 471.729C500.182 471.903 409.986 536.278 409.986 536.278L410.508 548.413L418.527 549.315C423.382 548.84 430.214 548.144 438.47 547.242H438.486Z" fill="#7590AA"/>
</g>
<path d="M534.265 501.33C534.265 501.33 555.11 505.95 573.092 519.587" stroke="white" stroke-width="1.03" stroke-miterlimit="10"/>
<g style="mix-blend-mode:multiply">
<path d="M469.595 543.524C436.493 547.796 410.587 550.042 410.587 550.042L409.986 536.262C409.986 536.262 438.755 515.727 474.751 497.818L469.595 543.508V543.524Z" fill="#1C174F"/>
</g>
<path d="M389.395 537.196C389.395 537.196 548.641 285.36 639.422 372.58C671.227 406.88 397.65 554.947 397.65 554.947L389.395 537.196Z" fill="#CCCCCC"/>
<path d="M606.21 374.416C606.21 374.416 464.123 462.047 404.562 534.174" stroke="white" stroke-width="1.03" stroke-miterlimit="10"/>
<path d="M610.844 408.019C610.844 408.019 578.042 401.485 562.575 402.909" stroke="white" stroke-width="1.03" stroke-miterlimit="10"/>
<path d="M526.879 390.822C526.879 390.822 520.11 421.008 510.209 440.072" stroke="white" stroke-width="1.03" stroke-miterlimit="10"/>
<path d="M503.314 478.058C503.314 478.058 484.177 470.843 468.219 472.9" stroke="white" stroke-width="1.03" stroke-miterlimit="10"/>
<g style="mix-blend-mode:multiply">
<path d="M473.169 511.867C431.068 536.848 397.65 554.947 397.65 554.947L393.981 547.036L396.274 526.786C410.16 506.187 443.705 458.772 483.702 418.856L473.185 511.883L473.169 511.867Z" fill="#1C174F"/>
</g>
<path d="M447.659 610.889C436.034 624.653 419.191 632.01 399.263 632.01C369.846 632.01 351.579 622.755 321.672 591.43C279.919 582.649 251.198 549.663 251.198 506.931C251.198 456.621 290.816 420.059 344.921 420.059C399.026 420.059 438.644 456.605 438.644 506.931C438.644 543.714 417.53 573.157 385.029 586.209C390.011 591.43 394.519 593.091 400.449 593.091C408.515 593.091 416.581 589.294 423.461 582.412L447.659 610.889ZM307.676 506.931C307.676 532.798 324.282 548.46 344.921 548.46C365.56 548.46 382.167 532.798 382.167 506.931C382.167 481.064 365.56 465.401 344.921 465.401C324.282 465.401 307.676 481.064 307.676 506.931Z" fill="#D75D0B"/>
<path d="M421.484 610.889C409.86 624.653 393.016 632.01 373.088 632.01C343.672 632.01 325.405 622.755 295.497 591.43C253.744 582.649 225.023 549.663 225.023 506.931C225.023 456.621 264.641 420.059 318.746 420.059C372.851 420.059 412.469 456.605 412.469 506.931C412.469 543.714 391.355 573.157 358.854 586.209C363.836 591.43 368.344 593.091 374.275 593.091C382.341 593.091 390.406 589.294 397.286 582.412L421.484 610.889ZM281.501 506.931C281.501 532.798 298.107 548.46 318.746 548.46C339.386 548.46 355.992 532.798 355.992 506.931C355.992 481.064 339.386 465.401 318.746 465.401C298.107 465.401 281.501 481.064 281.501 506.931Z" fill="#F7761F"/>
<path d="M364.485 382.405H301.365L290.215 411.357H233.279L305.888 245.223H360.926L433.536 411.357H375.651L364.501 382.405H364.485ZM349.065 342.062L332.933 300.295L316.801 342.062H349.065Z" fill="#D75D0B"/>
<path d="M321.909 106.775V135.252H391.197V177.494H321.909V230.652H265.922V64.5173H400.924V106.759H321.909V106.775Z" fill="#D75D0B"/>
<path d="M301.539 106.775V135.252H370.827V177.494H301.539V230.652H245.552V64.5173H380.553V106.759H301.539V106.775Z" fill="#F7761F"/>
<path d="M348.005 382.405H284.885L273.735 411.357H216.799L289.408 245.223H344.446L417.056 411.357H359.171L348.021 382.405H348.005ZM332.585 342.062L316.453 300.295L300.321 342.062H332.585Z" fill="#F7761F"/>
<g style="mix-blend-mode:multiply" opacity="0.56">
<path d="M386.358 303.396L375.856 317.065C375.856 317.065 358.317 343.264 368.645 366.395C378.972 389.54 417.072 411.357 417.072 411.357H433.551L386.374 303.396H386.358Z" fill="#0F1201"/>
</g>
<path d="M330.229 664C496.1 664 630.566 659.736 630.566 654.476C630.566 649.216 496.1 644.952 330.229 644.952C164.357 644.952 29.8916 649.216 29.8916 654.476C29.8916 659.736 164.357 664 330.229 664Z" fill="#0F1201"/>
<path d="M501.494 245.634C501.494 245.634 510.588 249.906 516.93 267.293C523.272 284.68 531.275 301.276 531.275 301.276L548.308 233.325C548.941 230.778 551.566 229.275 554.081 230.003L554.16 230.035C556.374 230.683 557.782 232.851 557.45 235.129L554.983 252.39L566.243 256.677C570.909 258.465 573.376 263.575 571.874 268.337L550.728 335.212C545.145 352.868 520.948 354.766 512.66 338.217L498.996 310.863L501.479 245.618L501.494 245.634Z" fill="#FF7E6E"/>
<path d="M531.275 301.292L526.578 320.736" stroke="#7B3C38" stroke-width="0.52" stroke-miterlimit="10" stroke-linecap="round"/>
<path d="M516.931 267.293C510.589 249.906 501.495 245.634 501.495 245.634L499.012 310.879L499.312 311.48L526.721 291.34C523.89 284.965 520.189 276.232 516.931 267.293Z" fill="#F7761F"/>
<path d="M526.721 291.34C525.851 289.379 524.902 287.179 523.905 284.838L499.375 301.497L499.012 310.879L499.312 311.48L526.721 291.34Z" fill="#ECECEC"/>
<path opacity="0.49" d="M520.094 346.508C528.682 351.903 540.575 350.194 547.122 342.046C544.165 338.676 539.832 336.541 535.008 336.541C528.286 336.541 522.529 340.654 520.094 346.508Z" fill="#CD2E2B"/>
<path d="M554.983 252.39L552.863 265.315" stroke="#7B3C38" stroke-width="0.52" stroke-miterlimit="10" stroke-linecap="round"/>
<path d="M564.725 256.107L562.764 269.191" stroke="#7B3C38" stroke-width="0.52" stroke-miterlimit="10" stroke-linecap="round"/>
<path opacity="0.49" d="M541.129 261.977L562.116 268.922C564.678 269.777 566.038 272.561 565.137 275.092L565.105 275.187C564.251 277.576 561.705 278.889 559.285 278.209L551.219 275.947C551.219 275.947 557.371 295.517 533.173 293.777L541.144 261.993L541.129 261.977Z" fill="#CD2E2B"/>
<path d="M503.345 273.067L499.882 288.034L499.012 310.879L510.431 333.724C509.213 304.551 503.345 273.067 503.345 273.067Z" fill="#0F1201"/>
<path d="M501.495 370.603L504.626 384.81L547.945 485.415C554.35 500.302 552.247 517.483 542.441 530.393L465.214 631.995L418.811 599.989L500.087 477.425L474.466 401.359L472.568 368.546L501.479 370.603H501.495Z" fill="#1C174F"/>
<path d="M425.786 370.603C425.786 370.603 421.263 396.391 440.415 465.923C459.568 535.44 486.043 635.301 486.043 635.301H545.067L478.879 403.02C478.879 403.02 481.631 391.961 482.184 373.482C465.087 359.417 425.786 370.603 425.786 370.603Z" fill="#1C174F"/>
<path d="M472.568 368.546C453.558 362.708 425.786 370.603 425.786 370.603C425.786 370.603 424.916 375.586 425.564 387.072C478.246 386.265 501.495 370.603 501.495 370.603L472.584 368.546H472.568Z" fill="#0F1201"/>
<path d="M469.785 232.614L501.495 245.65C501.495 245.65 508.533 324.691 501.495 370.619C447.311 383.449 425.802 370.619 425.802 370.619C425.802 370.619 433.251 272.846 428.285 250.349L455.567 238.752L469.785 232.629V232.614Z" fill="#F7761F"/>
<path d="M449.161 241.457L478.499 259.873V236.205L469.785 232.614L455.566 238.736C455.566 238.736 455.566 238.736 449.161 241.457Z" fill="#ECECEC"/>
<path d="M469.784 184.597C469.784 184.597 484.983 187.761 483.386 199.216C480.175 212.521 476.664 222.551 471.904 224.213C467.143 225.874 469.326 209.626 469.326 209.626L467.665 185.531L469.768 184.597H469.784Z" fill="#1C174F"/>
<path d="M473.406 193.599C473.406 193.599 474.735 182.636 465.451 180.357C456.183 178.079 450.822 177.557 448.117 172.083C443.04 184.091 445.666 189.296 449.62 193.362C461.655 195.055 473.39 193.599 473.39 193.599H473.406Z" fill="#1C174F"/>
<path d="M474.181 214.878V250.333L455.55 238.736V223.121L474.181 214.878Z" fill="#FF7E6E"/>
<path d="M439.719 296.261L429.708 297.036C429.218 315.087 428.174 334.421 427.272 348.723C438.122 331.335 439.719 296.245 439.719 296.245V296.261Z" fill="#0F1201"/>
<path d="M455.55 236.047C468.219 230.32 473.406 216.65 473.406 216.65L473.106 215.353L455.55 223.121V236.047Z" fill="#0F1201"/>
<path d="M449.635 193.362C449.635 193.362 443.562 220.115 447.975 228.674C460.659 227.851 469.769 226.19 474.181 214.878C474.181 203.566 472.805 204.943 474.181 201.636C475.557 198.33 478.325 193.631 471.429 191.986C464.534 190.324 454.601 189.502 449.635 193.362Z" fill="#FF7E6E"/>
<path d="M476.538 215.938C479.438 215.938 481.789 213.587 481.789 210.686C481.789 207.785 479.438 205.433 476.538 205.433C473.638 205.433 471.287 207.785 471.287 210.686C471.287 213.587 473.638 215.938 476.538 215.938Z" fill="#FF7E6E"/>
<path d="M447.231 207.237C447.231 207.237 450.442 206.557 452.103 206.414" stroke="#592A29" stroke-width="0.52" stroke-miterlimit="10" stroke-linecap="round"/>
<path d="M461.149 205.449C461.149 205.449 465.088 204.895 468.409 205.449" stroke="#592A29" stroke-width="0.52" stroke-miterlimit="10" stroke-linecap="round"/>
<path d="M461.149 198.678C461.149 199.184 461.561 199.596 462.067 199.58C463.854 199.516 467.792 199.69 469.785 201.984C469.785 201.415 469.785 200.972 469.785 200.608C469.785 199.564 469.231 198.615 468.314 198.093C467.08 197.396 465.135 196.59 462.573 196.463C461.814 196.431 461.149 197.033 461.149 197.792V198.678Z" fill="#1C174F"/>
<path d="M448.133 201.193C449.319 200.845 450.442 200.671 451.201 200.592C451.707 200.545 452.071 200.086 452.008 199.58L451.897 198.71C451.802 197.95 451.075 197.428 450.315 197.57C449.746 197.665 449.224 197.808 448.718 197.966C448.544 198.931 448.338 200.023 448.149 201.193H448.133Z" fill="#1C174F"/>
<path d="M453.605 209.009L452.672 214.293L456.294 213.676" stroke="#7B3C38" stroke-width="0.52" stroke-miterlimit="10" stroke-linecap="round"/>
<path d="M452.008 217.916C452.008 217.916 459.188 216.84 462.921 215.353" stroke="#7B3C38" stroke-width="0.52" stroke-miterlimit="10" stroke-linecap="round"/>
<path d="M428.269 250.333C428.269 250.333 418.21 254.051 408.278 279.712C401.762 296.546 390.391 326.415 383.337 344.989C379.573 354.909 382.151 366.11 389.869 373.387L433.646 414.616L449.161 385.933L416.281 353.374L439.719 296.277C439.719 296.277 444.685 259.873 428.269 250.349V250.333Z" fill="#FF7E6E"/>
<path d="M439.719 296.261C439.719 296.261 444.685 259.857 428.269 250.333C428.269 250.333 418.21 254.051 408.278 279.712C405.304 287.401 401.303 297.827 397.175 308.648C405.478 312.825 417.989 319.691 427.035 327.159L439.719 296.261Z" fill="#F7761F"/>
<path d="M399.99 301.292C399.073 303.712 398.124 306.165 397.175 308.648C405.478 312.825 417.989 319.691 427.035 327.159L430.056 319.818C420.535 310.911 406.791 304.25 399.99 301.276V301.292Z" fill="#ECECEC"/>
<path opacity="0.49" d="M384.033 343.154C383.795 343.771 383.558 344.403 383.337 344.989C379.573 354.908 382.151 366.11 389.869 373.387L389.995 373.498C392.81 370.033 394.487 365.619 394.487 360.825C394.487 353.216 390.264 346.587 384.033 343.169V343.154Z" fill="#CD2E2B"/>
<path d="M416.265 353.358L409.385 347.758" stroke="#7B3C38" stroke-width="0.52" stroke-miterlimit="10" stroke-linecap="round"/>
<path d="M486.043 635.301L492.116 654.618H572.333C572.333 654.618 569.343 635.301 545.067 635.301H486.043Z" fill="#F7761F"/>
<path d="M547.107 638.149C547.107 639.715 545.826 640.997 544.26 640.997H521.422C519.857 640.997 518.576 639.715 518.576 638.149C518.576 636.582 519.857 635.301 521.422 635.301H544.26C545.826 635.301 547.107 636.582 547.107 638.149Z" fill="#ECECEC"/>
<path d="M418.795 599.989L409.923 614.892L463.98 654.618H485.189C485.189 654.618 486.818 636.962 465.198 631.994C422.417 602.488 418.795 599.989 418.795 599.989Z" fill="#F7761F"/>
<g style="mix-blend-mode:overlay" opacity="0.47">
<path d="M449.635 193.362C449.635 193.362 443.562 220.115 447.975 228.674C453.02 228.342 457.496 227.867 461.339 226.728C468.456 214.435 468.171 197.191 467.807 191.258C461.386 190.182 453.763 190.135 449.62 193.362H449.635Z" fill="white"/>
</g>
<path opacity="0.26" d="M504.69 535.503C508.707 535.503 512.502 534.57 515.903 532.956L501.748 483.279C488.668 484.75 478.499 495.825 478.499 509.304C478.499 523.78 490.218 535.503 504.69 535.503Z" fill="#ECECEC"/>
<path d="M527.732 509.304C527.732 519.113 533.126 527.64 541.097 532.133L542.425 530.377C552.231 517.468 554.334 500.286 547.929 485.399L547.312 483.975C536.051 486.918 527.732 497.122 527.732 509.304Z" fill="#1C174F"/>
<path d="M430.008 421.467C431.194 427.89 432.681 434.993 434.516 442.825L468.693 381.219L452.498 379.779L430.008 421.467Z" fill="#0F1201"/>
<path d="M585.57 132.927H514.289C508.944 132.927 504.626 137.261 504.626 142.593V174.931C504.626 180.278 508.959 184.597 514.289 184.597H532.082L526.61 201.193L548.783 184.597H585.586C590.916 184.597 595.249 180.262 595.249 174.931V142.593C595.249 137.246 590.916 132.927 585.586 132.927H585.57Z" fill="#1C174F"/>
<path d="M520.094 146.232H580.715" stroke="#F7761F" stroke-width="1.05" stroke-miterlimit="10"/>
<path d="M520.094 158.319H580.715" stroke="#F7761F" stroke-width="1.05" stroke-miterlimit="10"/>
<path d="M520.094 170.422H562.764" stroke="#F7761F" stroke-width="1.05" stroke-miterlimit="10"/>
<path d="M501.495 370.603C508.533 324.675 501.495 245.634 501.495 245.634L497.209 243.878C497.209 243.878 497.304 330.275 446.726 375.792C458.904 376.963 476.791 376.456 501.495 370.603Z" fill="#F7761F"/>
<path d="M441.538 430.152L497.193 635.301" stroke="#9393A5" stroke-width="1.05" stroke-miterlimit="10"/>
<path d="M459.995 537.876L479.986 612.535L467.017 629.606L447.58 556.592L459.995 537.876Z" fill="#0F1201"/>
<g style="mix-blend-mode:overlay" opacity="0.47">
<path d="M408.278 279.712C401.762 296.545 390.391 326.415 383.337 344.989C379.573 354.908 382.151 366.11 389.869 373.387L400.924 383.797C383.1 367.011 397.871 337.648 412.817 301.292C427.763 264.92 428.253 250.349 428.253 250.349C428.253 250.349 418.194 254.067 408.262 279.728L408.278 279.712Z" fill="white"/>
</g>
<path d="M449.161 385.965L427.953 409.253L433.488 414.458L449.161 385.965Z" fill="#AA443C"/>
<path d="M182.764 370.033C182.764 370.033 205.017 503.83 203.356 633.766H155.372V429.077H150.453V371.141L182.764 370.033Z" fill="#1C174F"/>
<path d="M155.372 633.766V655.378H227.933C227.933 655.378 226.257 633.766 203.356 633.766H155.372Z" fill="#F7761F"/>
<path d="M205.649 636.82C205.649 638.513 204.289 639.873 202.597 639.873H174.145C172.452 639.873 171.092 638.513 171.092 636.82C171.092 635.127 172.452 633.766 174.145 633.766H202.597C204.289 633.766 205.649 635.127 205.649 636.82Z" fill="#ECECEC"/>
<path d="M145.534 633.766V655.378H72.9727C72.9727 655.378 74.6491 633.766 97.55 633.766H145.534Z" fill="#F7761F"/>
<path d="M95.2568 636.82C95.2568 638.513 96.617 639.873 98.3092 639.873H126.761C128.454 639.873 129.814 638.513 129.814 636.82C129.814 635.127 128.454 633.766 126.761 633.766H98.3092C96.617 633.766 95.2568 635.127 95.2568 636.82Z" fill="#ECECEC"/>
<path d="M203.356 633.766C205.017 503.83 182.764 370.033 182.764 370.033L174.509 370.318C179.127 405.867 194.895 535.171 193.899 633.766H203.372H203.356Z" fill="#9191A3"/>
<path d="M182.764 370.033L163.137 370.698C164.197 379.874 168.72 398.574 187.809 404.57C184.899 382.911 182.764 370.017 182.764 370.017V370.033Z" fill="#1C174F"/>
<path opacity="0.49" d="M178.858 540.518C187.54 540.518 194.578 533.478 194.578 524.793C194.578 516.107 187.54 509.067 178.858 509.067C170.176 509.067 163.137 516.107 163.137 524.793C163.137 533.478 170.176 540.518 178.858 540.518Z" fill="#1C174F"/>
<path opacity="0.57" d="M155.372 633.766H203.356C203.451 626.599 203.467 619.417 203.419 612.25H155.372V633.766Z" fill="#1C174F"/>
<path d="M118.142 370.033C118.142 370.033 95.8898 503.83 97.5504 633.766H145.535V429.077H150.453V371.141L118.142 370.033Z" fill="#1C174F"/>
<path d="M97.5504 633.766C95.8898 503.83 118.142 370.033 118.142 370.033L126.398 370.318C121.78 405.867 106.012 535.171 107.008 633.766H97.5346H97.5504Z" fill="#414149"/>
<path d="M118.142 370.033L137.769 370.698C136.709 379.874 132.186 398.574 113.097 404.57C116.007 382.911 118.142 370.017 118.142 370.017V370.033Z" fill="#1C174F"/>
<path opacity="0.49" d="M122.048 540.518C130.731 540.518 137.769 533.478 137.769 524.793C137.769 516.107 130.731 509.067 122.048 509.067C113.366 509.067 106.328 516.107 106.328 524.793C106.328 533.478 113.366 540.518 122.048 540.518Z" fill="#1C174F"/>
<path opacity="0.57" d="M145.534 633.766H97.5501C97.4552 626.599 97.4394 619.417 97.4868 612.25H145.534V633.766Z" fill="#1C174F"/>
<path d="M155.609 373.688H145.535V429.077H155.609V373.688Z" fill="#1C174F"/>
<path d="M118.142 370.033C118.142 370.033 117.652 372.96 116.83 378.339C156.02 389.208 182.749 370.033 182.749 370.033L150.438 371.141L118.126 370.033H118.142Z" fill="#0F1201"/>
<path d="M46.5293 295.486H17.666C15.2304 295.486 13.2534 293.508 13.2534 291.072V290.977C13.2534 288.54 15.2304 286.563 17.666 286.563H46.5293V295.47V295.486Z" fill="#6D3E38"/>
<path d="M127.647 255.823L127.489 255.775C118.664 252.991 109.206 257.547 105.885 266.185L85.4515 319.28L68.3865 284.791C66.1724 280.313 61.6175 277.481 56.6356 277.481H39.9186C37.1983 277.481 34.9999 279.681 34.9999 282.402V282.449H22.7429C19.9119 282.449 17.6187 284.743 17.6187 287.575V287.686C17.6187 290.518 19.9119 292.812 22.7429 292.812H41.6108L72.3246 351.286C78.9197 363.831 97.0126 363.452 103.054 350.637L127.632 298.618V255.854L127.647 255.823Z" fill="#915648"/>
<path d="M68.3863 284.775C66.1721 280.297 61.6172 277.466 56.6354 277.466H39.9025C37.1822 277.466 34.9839 279.665 34.9839 282.386H43.8248C43.8248 282.386 50.2142 290.265 59.2765 289.094C63.2779 288.572 66.5201 287.211 68.9082 285.851L68.3705 284.775H68.3863Z" fill="#A05D50"/>
<path d="M85.4673 319.264L91.9358 331.415" stroke="#0F1201" stroke-width="0.43" stroke-miterlimit="10"/>
<path opacity="0.55" d="M85.3246 345.052C80.1371 345.052 75.3134 346.539 71.1855 349.071L72.3243 351.254C78.777 363.547 96.2374 363.389 102.643 351.349C97.9454 347.425 91.9039 345.052 85.3088 345.052H85.3246Z" fill="#6B3F36"/>
<path d="M127.647 272.529L124.943 264.841C124.943 264.841 106.533 299.346 115.532 324.2L127.631 298.571V272.529H127.647Z" fill="#0F1201"/>
<path d="M254.377 295.486H283.24C285.676 295.486 287.653 293.508 287.653 291.072V290.977C287.653 288.54 285.676 286.563 283.24 286.563H254.377V295.47V295.486Z" fill="#6D3E38"/>
<path d="M173.259 255.823L173.417 255.775C182.242 252.991 191.7 257.547 195.021 266.185L215.455 319.28L232.52 284.791C234.734 280.313 239.289 277.481 244.271 277.481H260.988C263.708 277.481 265.907 279.681 265.907 282.402V282.449H278.164C280.995 282.449 283.288 284.743 283.288 287.575V287.686C283.288 290.518 280.995 292.812 278.164 292.812H259.296L228.582 351.286C221.987 363.831 203.894 363.452 197.852 350.637L173.275 298.618V255.854L173.259 255.823Z" fill="#915648"/>
<path d="M232.504 284.775C234.718 280.297 239.273 277.466 244.255 277.466H260.972C263.692 277.466 265.891 279.665 265.891 282.386H257.05C257.05 282.386 250.66 290.265 241.598 289.094C237.597 288.572 234.354 287.211 231.966 285.851L232.504 284.775Z" fill="#A05D50"/>
<path d="M215.439 319.264L208.955 331.415" stroke="#0F1201" stroke-width="0.43" stroke-miterlimit="10"/>
<path opacity="0.55" d="M215.582 345.052C220.769 345.052 225.593 346.539 229.721 349.071L228.582 351.254C222.129 363.547 204.669 363.389 198.264 351.349C202.961 347.425 209.002 345.052 215.598 345.052H215.582Z" fill="#6B3F36"/>
<path d="M173.259 272.529L175.964 264.841C175.964 264.841 194.373 299.346 185.374 324.2L173.275 298.571V272.529H173.259Z" fill="#0F1201"/>
<path d="M175.458 320.925C191.874 311.544 173.259 255.823 173.259 255.823L150.453 263.543L127.647 255.823C127.647 255.823 109.048 311.544 125.449 320.925L118.142 370.033C118.142 370.033 129.26 377.2 150.453 377.2C171.646 377.2 182.764 370.033 182.764 370.033L175.458 320.925Z" fill="#F7761F"/>
<path d="M167.534 257.753L150.453 263.543L133.373 257.753C131.237 265.141 127.79 284.696 150.453 286.578C173.117 284.712 169.669 265.141 167.534 257.753Z" fill="#915648"/>
<path d="M175.458 320.925C175.458 320.925 164.751 324.532 159.769 325.339C154.803 326.146 165.747 330.275 176.77 329.832C175.679 322.507 175.442 320.925 175.442 320.925H175.458Z" fill="#F7761F"/>
<path d="M159.231 229.813H142.134V271.818H159.231V229.813Z" fill="#915648"/>
<path d="M159.231 229.813H142.134V236.237C142.134 236.237 151.655 248.593 159.231 253.339V229.813Z" fill="#0F1201"/>
<path d="M127.552 212.094C134.199 212.094 139.588 206.704 139.588 200.054C139.588 193.405 134.199 188.015 127.552 188.015C120.905 188.015 115.517 193.405 115.517 200.054C115.517 206.704 120.905 212.094 127.552 212.094Z" fill="#4C1D1D"/>
<path opacity="0.19" d="M127.552 193.71C127.552 191.685 127.046 189.771 126.16 188.11C120.166 188.806 115.517 193.884 115.517 200.07C115.517 202.095 116.023 204.01 116.908 205.671C122.902 204.975 127.552 199.896 127.552 193.71Z" fill="#FEFEFE"/>
<path d="M142.261 237.407C142.261 237.407 151.56 246.299 166.364 246.156C168.546 246.14 170.365 244.479 170.507 242.296C172.041 221.175 170.46 200.94 153.442 197.491C143.463 195.783 121.1 205.513 132.771 226.934C137.643 234.227 142.261 237.391 142.261 237.391V237.407Z" fill="#915648"/>
<path d="M153.458 197.507C143.478 195.798 121.115 205.528 132.787 226.95C134.036 228.817 135.254 230.414 136.393 231.759C140.22 207.031 157.855 204.737 165.019 204.848C162.362 201.162 158.614 198.567 153.458 197.523V197.507Z" fill="#4C1D1D"/>
<path d="M134.195 228.943C134.954 229.972 135.697 230.905 136.393 231.743C140.221 207.016 157.855 204.721 165.019 204.832C162.52 201.383 159.073 198.899 154.407 197.745C137.674 206.161 134.622 221.333 134.195 228.959V228.943Z" fill="#ECECEC"/>
<path d="M142.261 233.579C142.261 237.107 139.398 239.97 135.871 239.97C132.345 239.97 129.482 237.107 129.482 233.579C129.482 230.051 132.345 227.187 135.871 227.187C139.398 227.187 142.261 230.051 142.261 233.579Z" fill="#915648"/>
<path d="M168.356 233.547L156.321 235.382C156.321 235.382 167.629 240.429 168.356 233.547Z" fill="#ECECEC"/>
<path d="M159.041 222.805C159.041 222.805 155.15 221.824 151.26 224.26" stroke="#2B1010" stroke-width="0.52" stroke-miterlimit="10" stroke-linecap="round"/>
<path d="M166.585 222.615C166.585 222.615 167.407 221.65 170.523 221.745" stroke="#2B1010" stroke-width="0.52" stroke-miterlimit="10" stroke-linecap="round"/>
<path d="M156.305 214.736C156.305 214.736 151.497 213.803 147.243 218.549" stroke="#4C1D1D" stroke-width="1.05" stroke-miterlimit="10" stroke-linecap="round"/>
<path d="M165.857 213.803C165.857 213.803 167.834 213.486 169.337 214.736" stroke="#4C1D1D" stroke-width="1.05" stroke-miterlimit="10" stroke-linecap="round"/>
<path d="M164.402 225.004L165.857 228.279L162.331 228.896" stroke="#4C1D1D" stroke-width="1.05" stroke-miterlimit="10"/>
<g style="mix-blend-mode:overlay" opacity="0.27">
<path d="M170.76 238.594C170.824 237.518 170.855 236.458 170.903 235.398C170.903 235.256 170.903 235.097 170.903 234.955C170.934 233.911 170.95 232.867 170.966 231.838C170.966 231.696 170.966 231.554 170.966 231.411C170.966 230.367 170.966 229.323 170.934 228.31C170.934 228.2 170.934 228.105 170.934 228.01C170.903 226.95 170.855 225.89 170.792 224.846C170.792 224.83 170.792 224.798 170.792 224.782C170.65 222.615 170.428 220.526 170.096 218.517C170.096 218.486 170.096 218.454 170.096 218.422C169.938 217.441 169.748 216.492 169.543 215.575C169.543 215.511 169.511 215.464 169.511 215.401C169.305 214.483 169.068 213.581 168.799 212.727C168.799 212.679 168.768 212.632 168.752 212.584C168.483 211.698 168.183 210.844 167.85 210.021C167.85 210.021 167.85 209.99 167.835 209.974C166.807 207.443 165.478 205.18 163.802 203.298C163.802 203.298 163.802 203.298 163.786 203.282C163.232 202.665 162.647 202.095 162.015 201.557C161.983 201.541 161.967 201.51 161.935 201.494C161.319 200.972 160.654 200.481 159.943 200.054C159.911 200.039 159.879 200.023 159.864 200.007C159.152 199.564 158.393 199.168 157.586 198.82L141.154 212.141C141.154 212.141 145.124 234.923 159.516 245.587C160.338 245.745 161.192 245.856 162.078 245.966C162.442 246.014 162.821 246.045 163.185 246.077C163.485 246.109 163.786 246.125 164.086 246.14C164.845 246.188 165.605 246.219 166.395 246.204C168.578 246.188 170.397 244.527 170.539 242.343C170.618 241.22 170.697 240.097 170.745 238.989C170.745 238.879 170.745 238.752 170.76 238.641V238.594Z" fill="white"/>
</g>
<path d="M133.119 233.547L139.588 235.366" stroke="#4C1D1D" stroke-width="0.52" stroke-miterlimit="10" stroke-linecap="round"/>
<path d="M139.588 239.401C139.588 240.635 138.592 241.631 137.358 241.631C136.124 241.631 135.128 240.635 135.128 239.401C135.128 238.167 136.124 237.17 137.358 237.17C138.592 237.17 139.588 238.167 139.588 239.401Z" fill="#F7761F"/>
<g style="mix-blend-mode:overlay" opacity="0.27">
<path d="M194.579 295.486C199.149 325.577 206.456 334.832 206.456 334.832L215.265 318.79L195.021 266.17C191.7 257.531 182.242 252.975 173.417 255.76L173.259 255.807C173.259 255.807 190.008 265.379 194.579 295.47V295.486Z" fill="white"/>
</g>
<g opacity="0.55">
<path d="M106.328 295.486C101.757 325.577 94.4504 334.832 94.4504 334.832L85.6411 318.79L105.885 266.17C109.206 257.531 118.664 252.975 127.489 255.76L127.647 255.807C127.647 255.807 110.899 265.379 106.328 295.47V295.486Z" fill="#6B3F36"/>
</g>
<path d="M125.449 320.925C125.449 320.925 136.156 324.532 141.138 325.339C146.104 326.146 135.16 330.275 124.136 329.832C125.228 322.507 125.465 320.925 125.465 320.925H125.449Z" fill="#F7761F"/>
<path d="M126.635 94.4662H72.2453C65.0304 94.4662 59.1816 100.317 59.1816 107.534V150.725C59.1816 157.942 65.0304 163.793 72.2453 163.793H126.635C133.85 163.793 139.699 157.942 139.699 150.725V107.534C139.699 100.317 133.85 94.4662 126.635 94.4662Z" fill="#1C174F"/>
<path d="M102.548 119.732C102.548 117.66 100.539 116.584 98.0718 116.584C95.1934 116.584 92.5206 118.324 91.113 121.124L79.2197 115.176C82.6359 108.752 89.3733 104.338 100.08 104.338C110.788 104.338 118.395 108.752 118.395 117.106C118.395 127.342 107.704 129.145 107.704 134.287H93.9282C93.9282 126.203 102.548 123.782 102.548 119.716V119.732ZM91.9829 144.887C91.9829 140.41 95.5888 136.993 100.808 136.993C106.027 136.993 109.633 140.41 109.633 144.887C109.633 149.364 106.027 152.908 100.808 152.908C95.5888 152.908 91.9829 149.301 91.9829 144.887Z" fill="#F7761F"/>
<path d="M78.0498 155.677L96.2219 179.155L93.1062 155.677H78.0498Z" fill="#1C174F"/>
</g>
<defs>
<clipPath id="clip0_103_312">
<rect width="642" height="664" fill="white"/>
</clipPath>
</defs>
</svg>
