<svg width="83" height="83" viewBox="0 0 83 83" fill="none" xmlns="http://www.w3.org/2000/svg">
<path d="M33.1462 56.7094C32.1418 56.916 31.3885 57.1225 30.6351 57.5357C29.6307 56.2963 28.8774 54.8502 27.873 53.8174C26.1153 51.7516 24.1063 49.8925 22.3486 47.8268C19.5864 44.7282 17.3264 41.6296 16.322 37.7047C14.062 27.9957 20.5908 18.4933 31.8907 14.775C46.7061 9.81727 63.7815 18.0802 66.0415 31.0943C67.0459 37.0849 64.7859 42.0427 60.7682 46.7939C59.0104 48.8596 56.7505 50.9254 54.9927 53.1977C53.7372 54.6437 52.9839 56.0897 51.7284 57.5357C51.2261 58.1554 50.7239 58.7751 49.9706 58.9817C44.1951 60.8409 38.4196 62.4935 32.6441 64.146C31.8907 64.3526 31.3885 64.146 31.1374 63.7329C30.8863 63.1132 30.8863 62.4935 31.6396 62.2869C32.1419 62.0803 32.644 61.8737 33.1462 61.8737C38.1684 60.4277 43.1906 58.9817 48.2128 57.3291C48.715 57.1225 49.2172 56.7094 49.4683 56.2963C51.4772 53.1977 53.9883 50.7188 56.4994 47.8268C59.0105 45.1413 61.2704 42.6624 62.2749 39.3572C64.786 32.7469 63.0282 26.9628 57.5038 22.0051C51.2261 16.221 43.1906 14.3619 34.1507 16.6342C25.1108 18.9065 20.0886 24.0708 18.3308 31.714C17.0753 37.0849 19.3353 41.6296 23.1019 45.761C25.3619 48.2399 27.6219 50.7188 29.8819 53.1977C31.3885 54.0239 32.1418 55.2634 33.1462 56.7094Z" fill="#1C174F"/>
<path d="M31.8907 77.1602C31.6396 76.9536 31.1375 76.7471 31.1375 76.3339C31.1375 75.9208 31.3886 75.5076 31.6397 75.0945C31.6397 74.8879 32.1419 74.8879 32.393 74.8879C37.9174 73.2353 43.6929 71.5827 49.2173 69.9302C50.4729 69.517 50.975 69.7236 51.2262 70.3433C51.4773 70.963 50.975 71.5827 49.9706 71.9959C44.1951 73.6485 38.6707 75.3011 32.8952 77.1602C32.6441 76.9536 32.393 76.9536 31.8907 77.1602Z" fill="#1C174F"/>
<path d="M31.8907 70.3436C31.6396 70.137 31.1375 69.9304 31.1375 69.5173C31.1375 69.1041 31.3886 68.691 31.6397 68.2778C31.6397 68.0713 32.1419 68.0713 32.393 68.0713C37.9174 66.4187 43.6929 64.7661 49.2173 63.1135C50.4729 62.7004 50.975 62.9069 51.2262 63.5267C51.4773 64.1464 51.2262 64.7661 49.9706 65.1792C44.1951 66.8318 38.6707 68.691 32.8952 70.3436C32.6441 70.3436 32.393 70.3436 31.8907 70.3436Z" fill="#1C174F"/>
<path d="M49.9704 76.1274C48.2127 81.0852 38.4194 83.9772 32.3928 81.2918C38.1683 79.6392 43.9438 77.78 49.9704 76.1274Z" fill="#1C174F"/>
<path d="M42.4374 3.82684C42.4374 4.65313 42.4374 5.47943 42.4374 6.30572C42.4374 6.92544 41.9351 7.33859 41.1818 7.33859C40.4285 7.33859 39.9263 6.92544 39.9263 6.30572C39.9263 4.65313 39.9263 3.00055 39.9263 1.14139C39.9263 0.521667 40.4285 0.108521 41.1818 0.108521C41.9351 0.108521 42.4374 0.521667 42.4374 1.14139C42.4374 1.96768 42.4374 3.00055 42.4374 3.82684Z" fill="#1C174F"/>
<path d="M4.51993 32.7473C5.52436 32.7473 6.52883 32.7473 7.53327 32.7473C8.5377 32.7473 9.03993 33.1605 9.03993 33.7802C9.03993 34.3999 8.5377 34.813 7.53327 34.813C5.52439 34.813 3.51554 34.813 1.50667 34.813C0.502233 34.813 0 34.3999 0 33.7802C0 33.1605 0.502233 32.7473 1.50667 32.7473C2.5111 32.7473 3.51549 32.7473 4.51993 32.7473Z" fill="#1C174F"/>
<path d="M77.8436 35.0195C76.8392 35.0195 75.8347 35.0195 74.8303 35.0195C74.0769 35.0195 73.5747 34.6063 73.5747 33.9866C73.5747 33.3669 74.0769 32.9537 74.8303 32.9537C76.8391 32.9537 79.0991 32.9537 81.108 32.9537C81.8613 32.9537 82.3635 33.3669 82.3635 33.9866C82.3635 34.6063 81.8613 35.0195 81.108 35.0195C79.8524 35.0195 78.848 35.0195 77.8436 35.0195Z" fill="#1C174F"/>
<path d="M12.5556 9.19775C13.0578 9.40433 13.3089 9.6109 13.56 9.81747C15.0667 11.0569 16.3222 12.0898 17.8289 13.3292C18.5822 13.9489 18.5822 14.3621 17.8289 14.9818C17.3267 15.395 16.5733 15.395 15.82 14.9818C14.3133 13.7424 12.8067 12.7095 11.5512 11.4701C11.3001 11.2635 11.0489 10.6438 11.3001 10.2306C11.5512 9.6109 12.3045 9.40433 12.5556 9.19775Z" fill="#1C174F"/>
<path d="M65.0371 52.3717C65.5394 52.5783 65.7905 52.7849 66.0416 52.9914C67.5482 54.0243 68.8038 55.2637 70.3104 56.2966C71.0638 56.9163 71.0638 57.536 70.5616 57.9492C70.0593 58.3623 69.306 58.3623 68.5526 57.7426C67.046 56.5032 65.7905 55.4703 64.2838 54.2309C64.0327 54.0243 63.7816 53.4046 64.0327 52.9914C64.0327 52.7849 64.5349 52.5783 65.0371 52.3717Z" fill="#1C174F"/>
<path d="M71.0637 10.4372C70.8126 10.8503 70.5615 11.0569 70.3104 11.2635C68.8037 12.5029 67.5482 13.5358 66.0415 14.7752C65.5393 15.1883 64.786 15.3949 64.0327 14.7752C63.5305 14.362 63.5305 13.7423 64.0327 13.1226C65.5393 11.8832 66.7948 10.6437 68.3015 9.61086C68.5526 9.40429 69.3059 9.19772 69.8081 9.40429C70.3104 9.61086 70.5615 10.2306 71.0637 10.4372Z" fill="#1C174F"/>
<path d="M12.5552 58.3621C12.3041 58.1555 11.8019 57.949 11.5508 57.5358C11.2997 57.3292 11.5508 56.7095 11.5508 56.5029C13.0575 55.2635 14.5641 53.8175 16.3219 52.578C16.8241 52.1649 17.5774 52.1649 18.0796 52.578C18.5818 52.9912 18.5818 53.6109 18.0796 54.0241C16.5729 55.2635 15.0663 56.5029 13.5597 57.7424C13.3085 58.1555 13.0575 58.3621 12.5552 58.3621Z" fill="#1C174F"/>
</svg>
