<svg width="100" height="99" viewBox="0 0 100 99" fill="none" xmlns="http://www.w3.org/2000/svg">
<g filter="url(#filter0_d_14_5480)">
<path d="M25.1431 49.4666C25.1431 35.9541 36.176 25 49.7859 25C63.3958 25 74.4288 35.9541 74.4288 49.4666C74.4288 62.9791 63.3958 73.9332 49.7859 73.9332C36.176 73.9332 25.1431 62.9791 25.1431 49.4666Z" fill="white"/>
</g>
<path d="M37.4646 44.5733H48.1432L48.9646 46.2044H38.286L37.4646 44.5733ZM38.5598 47.8355H49.2384L50.0598 49.4666H39.3813L38.5598 47.8355ZM56.3575 56.5347C57.2665 56.5347 58.0003 55.8061 58.0003 54.9036C58.0003 54.0011 57.2665 53.2725 56.3575 53.2725C55.4484 53.2725 54.7146 54.0011 54.7146 54.9036C54.7146 55.8061 55.4484 56.5347 56.3575 56.5347ZM58.0003 46.7481H55.2622V49.4666H60.147L58.0003 46.7481ZM45.4051 56.5347C46.3141 56.5347 47.0479 55.8061 47.0479 54.9036C47.0479 54.0011 46.3141 53.2725 45.4051 53.2725C44.496 53.2725 43.7622 54.0011 43.7622 54.9036C43.7622 55.8061 44.496 56.5347 45.4051 56.5347ZM58.5479 45.117L61.8336 49.4666V54.9036H59.6432C59.6432 56.7087 58.1756 58.1658 56.3575 58.1658C54.5394 58.1658 53.0717 56.7087 53.0717 54.9036H48.6908C48.6908 56.7087 47.2122 58.1658 45.4051 58.1658C43.587 58.1658 42.1194 56.7087 42.1194 54.9036H39.9289V51.0977H42.1194V52.7288H42.9517C43.5541 52.0655 44.4303 51.6414 45.4051 51.6414C46.3798 51.6414 47.256 52.0655 47.8584 52.7288H53.0717V42.9422H39.9289C39.9289 41.7351 40.9036 40.7673 42.1194 40.7673H55.2622V45.117H58.5479Z" fill="#2C2D5B"/>
<defs>
<filter id="filter0_d_14_5480" x="0.143066" y="0" width="99.2856" height="98.9332" filterUnits="userSpaceOnUse" color-interpolation-filters="sRGB">
<feFlood flood-opacity="0" result="BackgroundImageFix"/>
<feColorMatrix in="SourceAlpha" type="matrix" values="0 0 0 0 0 0 0 0 0 0 0 0 0 0 0 0 0 0 127 0" result="hardAlpha"/>
<feOffset/>
<feGaussianBlur stdDeviation="12.5"/>
<feComposite in2="hardAlpha" operator="out"/>
<feColorMatrix type="matrix" values="0 0 0 0 0.592 0 0 0 0 0.592 0 0 0 0 0.592 0 0 0 0.25 0"/>
<feBlend mode="normal" in2="BackgroundImageFix" result="effect1_dropShadow_14_5480"/>
<feBlend mode="normal" in="SourceGraphic" in2="effect1_dropShadow_14_5480" result="shape"/>
</filter>
</defs>
</svg>
