<svg width="31" height="30" viewBox="0 0 31 30" fill="none" xmlns="http://www.w3.org/2000/svg">
<circle cx="15.6855" cy="15" r="15" fill="white"/>
<path fill-rule="evenodd" clip-rule="evenodd" d="M12.7102 7.045C13.5648 7.00818 13.8373 7 16.0142 7C18.1912 7 18.4637 7.00886 19.3175 7.045C20.1714 7.08114 20.7543 7.20864 21.2643 7.39341C21.7983 7.58227 22.2828 7.8775 22.6835 8.25932C23.0915 8.63364 23.4062 9.08636 23.6073 9.58682C23.8055 10.0641 23.941 10.6095 23.9803 11.4073C24.0197 12.2084 24.0284 12.4634 24.0284 14.5C24.0284 16.5373 24.019 16.7923 23.9803 17.592C23.9417 18.3898 23.8055 18.9352 23.6073 19.4125C23.4062 19.913 23.091 20.3665 22.6835 20.7414C22.2828 21.1232 21.7983 21.4177 21.2643 21.6059C20.7543 21.7914 20.1714 21.9182 19.319 21.955C18.4636 21.9918 18.1912 22 16.0142 22C13.8373 22 13.5648 21.9911 12.7102 21.955C11.8578 21.9189 11.2749 21.7914 10.7649 21.6059C10.2301 21.4177 9.74551 21.1227 9.34493 20.7414C8.93721 20.3668 8.6217 19.9136 8.42038 19.4132C8.22294 18.9359 8.08743 18.3905 8.04809 17.5927C8.00874 16.7916 8 16.5366 8 14.5C8 12.4627 8.00947 12.2077 8.04809 11.4086C8.0867 10.6095 8.22294 10.0641 8.42038 9.58682C8.62199 9.08642 8.93775 8.63317 9.34566 8.25864C9.74567 7.87716 10.2298 7.58189 10.7642 7.39341C11.2742 7.20864 11.857 7.08182 12.7094 7.045H12.7102ZM19.2527 8.395C18.4076 8.35886 18.154 8.35136 16.0142 8.35136C13.8744 8.35136 13.6209 8.35886 12.7757 8.395C11.994 8.42841 11.57 8.55045 11.2873 8.65341C10.9135 8.78977 10.6461 8.95136 10.3657 9.21386C10.0998 9.45594 9.89513 9.75065 9.76677 10.0764C9.65676 10.3409 9.52634 10.7377 9.49064 11.4693C9.45203 12.2602 9.44402 12.4975 9.44402 14.5C9.44402 16.5025 9.45203 16.7398 9.49064 17.5307C9.52634 18.2623 9.65676 18.6591 9.76677 18.9236C9.895 19.2489 10.0997 19.5441 10.3657 19.7861C10.6243 20.035 10.9398 20.2266 11.2873 20.3466C11.57 20.4495 11.994 20.5716 12.7757 20.605C13.6209 20.6411 13.8737 20.6486 16.0142 20.6486C18.1547 20.6486 18.4076 20.6411 19.2527 20.605C20.0344 20.5716 20.4585 20.4495 20.7411 20.3466C21.1149 20.2102 21.3823 20.0486 21.6628 19.7861C21.9287 19.5441 22.1334 19.2489 22.2617 18.9236C22.3717 18.6591 22.5021 18.2623 22.5378 17.5307C22.5764 16.7398 22.5844 16.5025 22.5844 14.5C22.5844 12.4975 22.5764 12.2602 22.5378 11.4693C22.5021 10.7377 22.3717 10.3409 22.2617 10.0764C22.1159 9.72659 21.9433 9.47636 21.6628 9.21386C21.4041 8.96505 21.0892 8.77355 20.7411 8.65341C20.4585 8.55045 20.0344 8.42841 19.2527 8.395ZM14.9906 16.812C15.5623 17.0347 16.1988 17.0648 16.7915 16.8971C17.3843 16.7294 17.8964 16.3743 18.2404 15.8924C18.5845 15.4106 18.7391 14.832 18.6779 14.2553C18.6167 13.6786 18.3434 13.1398 17.9048 12.7307C17.6252 12.4692 17.2872 12.269 16.915 12.1444C16.5428 12.0199 16.1457 11.9741 15.7523 12.0104C15.3589 12.0467 14.979 12.1642 14.64 12.3544C14.301 12.5446 14.0112 12.8028 13.7916 13.1104C13.572 13.4179 13.4279 13.7672 13.3699 14.1332C13.3119 14.4991 13.3412 14.8725 13.4559 15.2265C13.5706 15.5805 13.7677 15.9063 14.033 16.1805C14.2984 16.4547 14.6254 16.6704 14.9906 16.812ZM13.1014 11.7741C13.4839 11.4161 13.938 11.1322 14.4378 10.9384C14.9376 10.7447 15.4733 10.645 16.0142 10.645C16.5552 10.645 17.0908 10.7447 17.5906 10.9384C18.0904 11.1322 18.5445 11.4161 18.927 11.7741C19.3095 12.1321 19.613 12.557 19.82 13.0247C20.027 13.4925 20.1335 13.9938 20.1335 14.5C20.1335 15.0062 20.027 15.5075 19.82 15.9753C19.613 16.443 19.3095 16.8679 18.927 17.2259C18.1545 17.9489 17.1067 18.355 16.0142 18.355C14.9217 18.355 13.8739 17.9489 13.1014 17.2259C12.3289 16.503 11.8949 15.5224 11.8949 14.5C11.8949 13.4776 12.3289 12.497 13.1014 11.7741ZM21.0471 11.2191C21.1419 11.1354 21.2178 11.0348 21.2703 10.9232C21.3228 10.8115 21.3508 10.6912 21.3527 10.5693C21.3546 10.4473 21.3304 10.3263 21.2814 10.2133C21.2324 10.1003 21.1597 9.99762 21.0675 9.91139C20.9754 9.82516 20.8657 9.75711 20.7449 9.71126C20.6242 9.66542 20.4948 9.64271 20.3645 9.64449C20.2342 9.64627 20.1056 9.67249 19.9864 9.72161C19.8671 9.77073 19.7596 9.84175 19.6702 9.93045C19.4963 10.103 19.401 10.3321 19.4047 10.5693C19.4084 10.8064 19.5107 11.0329 19.6899 11.2006C19.8691 11.3683 20.1111 11.464 20.3645 11.4675C20.6179 11.4709 20.8628 11.3818 21.0471 11.2191Z" fill="#6F7477"/>
</svg>
