<svg width="84" height="82" viewBox="0 0 84 82" fill="none" xmlns="http://www.w3.org/2000/svg">
<path d="M80.5424 2.3582C79.2968 2.3582 77.8435 2.3582 76.5979 2.3582C68.0863 2.76487 59.9898 4.59489 52.3085 8.25491C42.9664 12.5249 35.0775 18.625 28.8495 26.7584C24.4898 32.2484 21.3758 38.3485 19.0922 44.8552C18.8846 45.2619 19.0922 45.4652 19.2998 45.6685C21.1682 47.4985 23.0366 49.3286 24.9051 51.1586C25.1127 51.3619 25.3203 51.7686 25.3203 52.1752C25.3203 52.5819 25.1127 52.9886 24.6975 53.1919C24.2822 53.3953 23.6594 53.3953 23.4518 52.9886C22.4138 51.9719 21.5834 51.1586 20.5454 50.1419C19.2998 48.9219 18.2618 47.7019 17.0162 46.6852C16.601 46.2785 16.3934 45.6685 16.601 45.0585C19.2998 37.1285 23.2442 29.8084 28.8495 23.3017C34.4547 16.5916 41.3056 11.3049 48.9869 7.44157C56.0453 3.78155 63.7266 1.54486 71.6155 0.528187C74.9371 0.121517 78.2588 -0.0818176 81.5804 0.121517C82.6184 0.121517 82.826 0.528187 83.0336 1.54486C83.4488 14.7616 80.1272 26.9617 72.8611 38.3485C65.595 49.5319 55.6301 57.8686 43.174 63.1553C41.3056 63.9687 39.2296 64.5787 37.1536 65.392C36.5308 65.5954 36.1156 65.5954 35.7004 64.9853C33.6243 62.952 31.3407 60.7153 29.2647 58.682C28.8495 58.2753 28.6419 57.6653 29.0571 57.0553C29.4723 56.4453 30.3027 56.4453 30.9255 57.0553C32.7939 58.8853 34.6623 60.7153 36.5308 62.5453C36.946 62.952 37.1536 62.952 37.5688 62.7487C46.7033 59.6986 54.7997 54.8186 61.6506 48.3119C69.7471 40.5852 75.1447 31.4351 78.2588 21.065C79.9196 15.3716 80.75 9.47492 80.75 3.37488C80.75 2.96821 80.5424 2.76487 80.5424 2.3582Z" fill="#1C174F"/>
<path d="M69.1243 26.1484C69.1243 33.0618 63.5191 38.5518 56.4606 38.5518C49.4021 38.5518 43.7969 33.0618 43.7969 26.1484C43.7969 19.4384 49.4021 13.745 56.253 13.745C63.5191 13.745 69.1243 19.235 69.1243 26.1484ZM66.6331 26.3518C66.6331 20.6584 62.0658 16.185 56.253 16.185C50.4401 16.185 45.8729 20.6584 45.8729 26.3518C45.8729 32.0451 50.4401 36.5185 56.253 36.5185C62.0658 36.3152 66.6331 31.8418 66.6331 26.3518Z" fill="#1C174F"/>
<path d="M37.3611 78.202C38.8143 77.3887 40.2675 76.372 41.5131 75.3553C45.6652 71.6953 47.9488 67.2219 48.9868 61.9352C49.1944 61.1219 49.6096 60.7152 50.2324 60.7152C51.0628 60.7152 51.478 61.3252 51.478 62.1386C51.2704 63.1552 51.0628 64.3752 50.6476 65.3919C48.364 72.3053 44.212 77.3887 37.7763 80.8454C36.3231 81.6587 35.7003 81.252 35.4927 79.8287C34.6623 75.5587 33.8319 71.0853 33.0015 66.8153C33.0015 66.4086 33.0015 66.0019 33.0015 65.7986C33.2091 65.3919 33.6243 65.1886 34.2471 65.1886C34.6623 65.1886 35.0775 65.5952 35.2851 66.0019C35.4927 67.2219 35.7003 68.4419 36.1155 69.8653C36.3231 72.712 36.9459 75.3553 37.3611 78.202Z" fill="#1C174F"/>
<path d="M3.10692 44.6519C4.35253 44.8552 5.59814 45.0585 6.63615 45.2619C9.54258 45.8719 12.449 46.2785 15.1478 46.8885C15.3554 46.8885 15.3554 46.8885 15.563 46.8885C16.1858 47.0919 16.601 47.7019 16.3934 48.3119C16.1858 48.9219 15.7706 49.3286 14.9402 49.1252C13.2794 48.7185 11.411 48.5152 9.75018 48.1085C7.05136 47.4985 4.35253 47.0919 1.4461 46.4819C1.2385 46.4819 1.2385 46.4819 1.0309 46.4819C-0.0071113 46.2785 -0.214713 45.6685 0.200491 44.6519C1.4461 42.4152 2.89932 40.1785 4.76773 38.3485C8.71217 34.2818 13.487 32.0451 18.8847 30.8251C19.0923 30.8251 19.2999 30.8251 19.2999 30.6217C19.9227 30.4184 20.5455 30.8251 20.7531 31.4351C20.9607 32.0451 20.5455 32.6551 19.7151 32.8584C18.4695 33.2651 17.0163 33.4684 15.7706 33.8751C10.373 35.7051 6.22095 38.9585 3.10692 43.6352C3.31452 44.2452 3.31452 44.4485 3.10692 44.6519Z" fill="#1C174F"/>
<path d="M17.8467 62.7488C18.0543 62.5455 18.2619 62.1388 18.4695 61.9355C22.4139 58.0721 26.1508 54.4121 30.0952 50.5487C31.5484 49.1254 32.794 47.9053 34.2472 46.482C34.87 45.872 35.4928 45.872 36.1157 46.2787C36.5309 46.6853 36.5309 47.4987 35.9081 48.1087C31.3408 52.582 26.7736 57.2587 21.9987 61.7321C21.3759 62.3421 20.7531 63.1555 19.9227 63.7655C19.5075 64.1721 19.0923 64.1721 18.6771 63.9688C18.0543 63.7655 17.8467 63.3588 17.8467 62.7488Z" fill="#1C174F"/>
<path d="M12.4491 68.0354C12.8643 68.2387 13.2795 68.4421 13.4871 68.8487C13.6947 69.2554 13.4871 69.6621 13.2795 70.0687C13.0719 70.2721 12.6567 70.6788 12.4491 71.0854C9.95785 73.5254 7.46663 76.1688 4.7678 78.6088C4.3526 78.8122 4.145 79.0155 3.72979 79.0155C3.31459 79.0155 2.89939 78.8121 2.69178 78.4055C2.48418 77.7955 2.48418 77.3888 2.89939 76.9821C4.5602 75.3555 6.22102 73.7288 7.88183 72.1021C9.12745 70.8821 10.1655 69.8654 11.4111 68.6454C11.8263 68.4421 12.0339 68.2387 12.4491 68.0354Z" fill="#1C174F"/>
<path d="M10.5807 59.6986C11.6187 59.6986 12.2415 60.7153 11.8263 61.3253C11.6187 61.5286 11.6187 61.732 11.4111 61.9353C8.71224 64.5786 6.01341 67.222 3.31459 69.8653L3.10698 70.0687C2.48418 70.4754 1.86137 70.6787 1.44617 70.0687C1.03096 69.662 1.03096 68.8487 1.44617 68.442C3.52219 66.4087 5.59821 64.3753 7.67423 62.342C8.50464 61.5286 9.12744 60.9186 9.95785 60.3086C10.1655 59.9019 10.5807 59.6986 10.5807 59.6986Z" fill="#1C174F"/>
<path d="M22.2063 71.0855C22.2063 71.2889 21.9987 71.4922 21.7911 71.8989C18.8846 74.7456 16.1858 77.3889 13.2794 80.2356C12.6566 80.8456 12.0338 80.8456 11.411 80.2356C10.9957 79.8289 10.9957 79.0156 11.6186 78.6089C14.525 75.7623 17.2238 73.1189 20.1302 70.2722C20.5454 69.8655 20.9606 69.6622 21.5835 69.8655C21.9987 70.0689 22.2063 70.2722 22.2063 71.0855Z" fill="#1C174F"/>
</svg>
