<svg width="31" height="30" viewBox="0 0 31 30" fill="none" xmlns="http://www.w3.org/2000/svg">
<circle cx="15.6855" cy="15" r="15" fill="#6F7477"/>
<path d="M24.0284 10.4255C23.439 10.6598 22.7975 10.8284 22.1368 10.8941C22.8228 10.5185 23.3365 9.92521 23.5815 9.22545C22.9378 9.57833 22.2327 9.82578 21.4973 9.95681C21.19 9.65402 20.8183 9.4128 20.4053 9.24819C19.9924 9.08357 19.5471 8.99909 19.0972 9.00001C17.2769 9.00001 15.8129 10.3598 15.8129 12.0284C15.8129 12.2627 15.8437 12.497 15.8938 12.7225C13.1682 12.5911 10.7372 11.3911 9.12108 9.55385C8.82661 10.0174 8.67229 10.5451 8.67419 11.0823C8.67419 12.1331 9.254 13.0598 10.1382 13.6047C9.61711 13.5858 9.10826 13.4538 8.653 13.2195V13.2568C8.653 14.7284 9.78179 15.9479 11.2862 16.2284C11.0037 16.296 10.7132 16.3306 10.4213 16.3314C10.2075 16.3314 10.0052 16.3118 9.80106 16.2852C10.2171 17.4852 11.4287 18.3568 12.8715 18.3852C11.7427 19.2 10.3289 19.6793 8.79362 19.6793C8.51816 19.6793 8.2639 19.6704 8 19.642C9.45625 20.503 11.1841 21 13.0449 21C19.0856 21 22.3911 16.3882 22.3911 12.3852C22.3911 12.2539 22.3911 12.1225 22.3815 11.9911C23.021 11.5598 23.5815 11.0254 24.0284 10.4255Z" fill="white"/>
</svg>
